<svg xmlns="http://www.w3.org/2000/svg" viewBox="0 0 889 860"><g opacity=".2"><path fill="#97C8B5" d="M782.31 540.28l1.03-.01c-.03-.23-.1-.45-.17-.67-.27.23-.58.44-.87.64l.01.04z"/><path fill="#6049B0" d="M783.18 539.63c.07.22.1.45.17.67h2.94c-.24-1.1-.5-2.15-.88-3.18-.6.96-1.34 1.79-2.23 2.5zm-96.46-7.73c3.57 4.43 9.33 7.5 16.7 8.7 2.72.44 6.1.88 9.93 1.25a1.54 1.54 0 01-1.1-1.47c0-.78.69-1.35 1.47-1.26h.38c-4-.36-7.56-.82-10.36-1.3-8.31-1.36-14.3-5.25-16.82-10.88-2.29-5.11-1.4-11.09 2.41-16.55a13.83 13.83 0 01-1.35-3.06c-.1.12-.24.26-.33.38-4.97 6.52-6.23 13.87-3.4 20.2l.56 1.13c.54.99 1.17 1.92 1.86 2.8l.05.06zm88.6-24.08a28.17 28.17 0 014.54 5.58c1.66 2.83 2.06 5.71 1.14 7.97.93.35 1.8.82 2.6 1.4 0-.02.02-.03.02-.03 1.34-3.07.88-6.92-1.24-10.58-1.66-2.82-3.98-5.22-6.33-7.47a11 11 0 01-.72 3.16v-.03z"/><path fill="#6049B0" d="M689.34 510.43c3.32 5.44 11.01 8.7 22.86 9.66 10.5.87 24.03 1.69 35.73.6 1.35-.11 2.68-.26 3.9-.45 1.75-.25 3.88-.6 6.16-1.14 5.98-1.44 12.88-4.11 16.15-9.07.47-.72.83-1.45 1.15-2.2.41-1.02.64-2.1.72-3.16a14.2 14.2 0 00-.47-4.8c-1.73-6.2-5.98-11.08-11.39-13.07a18.5 18.5 0 00-3.97-.94c.21.93.37 1.9.39 2.85.9.16 1.8.38 2.7.71 4.5 1.63 8.04 5.77 9.49 11.05.83 3.05.49 5.64-1.04 7.97-2.9 4.36-10.33 7.67-20.43 9.05-1.2.15-2.45.31-3.76.42-11.46 1.1-24.86.24-35.22-.6-12.66-1.02-19.94-4.66-21.6-10.74a6.83 6.83 0 011.26-6.44c1.2-1.5 3.02-2.76 5.18-3.82a8.62 8.62 0 01-.82-2.78c-2.78 1.27-5.13 2.85-6.7 4.82a9.4 9.4 0 00-1.71 8.79l.08.25c.32 1.07.74 2.1 1.35 3.07l-.01-.03zM781 521.37a15.56 15.56 0 00-8.22-.47c-5.76 1.11-10.77 3.77-15.6 6.36l-.18.08c-3.2 1.68-6.49 3.45-10 4.7-9.86 3.49-22.12 7.82-32.85 7.1h-.38c-.81-.04-1.47.52-1.48 1.27a1.55 1.55 0 001.4 1.53c.78.05 3.29.94 5.36 1.73l.25-.1c1-.24 2.08.05 2.84.85l.85.84c2.47.87 4.75 1.24 7.3 1.44l3.46-1.88c.2-.12.45-.21.67-.27a2.93 2.93 0 012.21.35l3.07 1.78c1.86-.11 3.67-.27 5.48-.44.58-.03 1.17-.11 1.75-.15l2.78-2.3c.32-.27.72-.44 1.1-.53.68-.16 1.4-.06 2.05.26l3.8 1.9c1.17-.08 2.35-.2 3.53-.27l2.48-3.04c-4.3.39-8.64.72-12.93 1-1.66.1-3.34.26-4.99.39-4.66.4-9.48.78-14.17.45a22.46 22.46 0 01-8.9-2.17c9.11-.97 18.51-4.27 26.4-7.08 3.75-1.3 7.27-3.2 10.4-4.88l.2-.07c4.89-2.6 9.49-5.03 14.82-6.07 4.2-.8 7.67.06 9.56 2.38a6.25 6.25 0 011.35 3.4c.18.37.33.74.41 1.13a3.87 3.87 0 01-1.23 3.72c-.13.27-.22.53-.38.8-2.17 4.28-8.55 5.75-14.41 6.41l4.56 2.16c.59-.1 1.16-.25 1.77-.4h.04l2.64-2.3a2.73 2.73 0 011.87-.65h2.65c.32-.2.59-.44.87-.64.88-.72 1.63-1.54 2.23-2.5l.4-.7c2.24-4.41 2.04-8.9-.51-12.05a9.48 9.48 0 00-4.27-3.01l-.05-.06z"/><path fill="#6049B0" d="M697.14 496.28a8.6 8.6 0 001.98 2.64c7.84 7.34 30.34 5.16 43.02 3.23 1.68-.26 3.42-.54 5.12-.95 2.12-.51 4.22-1.19 6.16-2.2 3.98-2.07 6.56-5.23 7.06-8.67a14.06 14.06 0 00-.33-4.46c-.2-.84-.43-1.63-.65-2.46-.48-1.65-.95-3.2-.97-4.72-.02-1.18.2-2.35.44-3.63.15-.75.29-1.52.36-2.32.7-6.03-1.69-12-3.82-17.29a1.53 1.53 0 00-1.63-.93c-.7.1-1.18.66-1.18 1.34.1 6.82-7.26 11.84-13.6 14-3.11 1.1-7.3 1.93-11.75 2.83-6.73 1.34-14.3 2.85-20.3 5.68a4.5 4.5 0 013.4 1.6 68.11 68.11 0 018.77-2.65c2.92-.7 5.94-1.3 8.83-1.89 4.55-.92 8.84-1.75 12.1-2.9 5.62-1.96 11.94-5.95 14.36-11.55 1.32 3.72 2.3 7.58 1.86 11.35-.1.7-.22 1.41-.35 2.12-.24 1.34-.51 2.7-.47 4.18.06 1.88.58 3.7 1.08 5.44.59 2.03 1.13 3.93.9 5.75-.35 2.56-2.48 5.07-5.66 6.71-3.13 1.63-6.84 2.35-10.43 2.88-20.4 3.1-35.53 2.19-40.5-2.45a6.02 6.02 0 01-1.85-5.45 11.6 11.6 0 014.32-7.62 3.92 3.92 0 01.13-3.62c-3.98 2.55-6.75 6-7.35 10.78a8.89 8.89 0 00-.01 2.44c.1 1 .38 1.91.82 2.79h.14z"/><path fill="#F4F2B8" d="M738.7 549.26l-3.49-2.02-5.28 2.9 5.28-2.9 3.48 2.02z"/><path fill="#472EA5" d="M744.1 490.2a4.4 4.4 0 004.93 3.38 3.8 3.8 0 003.24-4.6 4.4 4.4 0 00-4.93-3.4 3.8 3.8 0 00-3.25 4.61zm-40.86-7.18a4.45 4.45 0 004.94 3.4 3.8 3.8 0 003.24-4.62 4.4 4.4 0 00-4.94-3.4c-1.25.2-2.24.89-2.8 1.87-.49.8-.67 1.75-.44 2.75zm76.63 44.11a3.8 3.8 0 00-3.24 4.61 4.4 4.4 0 004.93 3.4 3.8 3.8 0 003.24-4.6 4.49 4.49 0 00-4.95-3.42l.02.01zm-38.58 3.94a3.8 3.8 0 003.24-4.6 4.4 4.4 0 00-4.94-3.4 3.8 3.8 0 00-3.24 4.61 4.4 4.4 0 004.94 3.4zm26.01-27.37a3.8 3.8 0 003.25-4.6 4.4 4.4 0 00-4.94-3.4 3.8 3.8 0 00-3.24 4.62 4.4 4.4 0 004.93 3.39zm-42.33 10.37a3.8 3.8 0 003.24-4.6 4.4 4.4 0 00-4.93-3.4 3.8 3.8 0 00-3.24 4.61 4.4 4.4 0 004.93 3.4zm-32.49 7.73a3.8 3.8 0 00-3.24 4.62 4.4 4.4 0 004.94 3.39 3.8 3.8 0 003.24-4.61 4.4 4.4 0 00-4.94-3.4z"/><path fill="#6049B0" fill-rule="evenodd" d="M787.77 540.32c.93-.02 1.82.41 2.4 1.16v-.1c.57.74.79 1.67.53 2.51-.13.37-.23.73-.32 1.1l-.31.07c-.92 3.12-1.82 6.27-2.73 9.41l-6.76 23.5a129 129 0 00-1.12 4.33c-1 4.14-2.07 8.43-4.3 12.32-2.8 4.9-7.44 8.2-13.83 9.73-6.9 1.66-14.82 1.05-21.72.36l-.98-.09-1.96-.18c-18.21-1.6-35.49-4.3-38.52-13.3-2.48-7.32-5.24-13.17-8.12-20.47l-.44-1.42-4.4-10.98c-.48-1.2-.97-2.4-1.45-3.63-1.47-3.66-2.97-7.39-4.4-11.07a2.7 2.7 0 01.26-2.5 2.79 2.79 0 012.31-1.13h.45l2.87.02 6.69.02c.97 0 1.87.46 2.44 1.2l2.64 3.44 6.27-2.38c.12-.07.21-.09.34-.12 1-.24 2.1.07 2.84.81l5.62 5.53 6.22-4.47c.22-.16.47-.25.72-.35a.64.64 0 00.12-.04l.13-.05c.96-.23 2.06.08 2.84.84l.85.85 3.48 3.5 3.82-2.07 3.45-1.88a2.99 2.99 0 012.89.09l3.06 1.77 3.86 2.23 3.38-2.81 2.78-2.3a3 3 0 011.1-.53 3.1 3.1 0 012.05.25l3.8 1.9 2.31 1.18 1.2-1.48 2.49-3.04.67-.83c.41-.48.9-.76 1.49-.9a2.94 2.94 0 011.99.2l1.98.95 4.56 2.15.89.43.92-.8 2.64-2.29a2.83 2.83 0 011.87-.65h6.62l1.52.01zm-95.84 27.2l.39 1.26c3.03 7.64 5.96 13.92 8.57 21.64 2.8 8.34 25.27 10.31 35.87 11.24l3 .27c6.5.64 14.18 1.28 20.74-.3.77-.18 1.53-.4 2.28-.65.73-.2 1.37-.46 1.85-.71a16.6 16.6 0 007.97-7.07c2.02-3.57 3-7.59 3.98-11.57.37-1.53.75-3.05 1.18-4.55 2.25-7.88 4.53-15.77 6.8-23.65l2.53-8.76.04.02.29-.07c.15-.52.3-1.05.47-1.58l-8.11-.02-4.96 4.3-3.11-1.48-6.06-2.89-5.77 7.05-8.24-4.16-7.69 6.4-5.28-3.05-3.47-2-9.16 5-5.96-5.96-8.18 5.93-7.46-7.33-3.51 1.36-4.82 1.83-4.06-5.26-10.01-.04c1.86 4.75 3.76 9.5 5.67 14.25l4.22 10.54z" clip-rule="evenodd"/><path fill="#fff" d="M768.3 182.23c3.8.28 7.6.72 11.36.4 7.94-.66 15.29-4.8 19.65-11.03 1.67 11.5-6.04 21.69-14.3 29.57-5.72 5.44-12 10.5-19.46 13.49-10.6 4.2-37.12 2.6-36.05-14.37.99-16.1 26.46-18.96 38.8-18.06z"/><path fill="#6049B0" d="M785.94 202.1c11.28-10.78 16.08-20.78 14.65-30.6-.1-.52-.47-.97-.99-1.09a1.29 1.29 0 00-1.37.47c-4.17 5.98-11.17 9.9-18.74 10.53-2.96.24-6.07 0-9.08-.26-.7-.07-1.37-.11-2.07-.15-10.79-.76-39.02 1.17-40.12 19.16-.33 5.23 1.81 9.63 6.17 12.72 8.7 6.19 24.32 5.86 31.73 2.93a43.35 43.35 0 003.93-1.8c6.49-3.35 11.81-8.01 15.9-11.91zm-17.67-18.6l2.05.15c3.1.23 6.33.51 9.52.25a28.53 28.53 0 0018.42-8.86c-.1 7.99-4.77 16.26-14.15 25.23-4.72 4.52-11.18 10.1-19.08 13.22-6.86 2.73-21.24 3.04-29.17-2.59-3.63-2.58-5.32-6.08-5.04-10.45.35-5.71 4.06-9.58 9.1-12.18 9-4.68 22.36-5.2 28.4-4.75l-.05-.03z"/><path fill="#fff" d="M768.3 210.68a.89.89 0 01-.28.1l-27 6.61a1.36 1.36 0 01-1.35-.45c-.33-.4-.42-.92-.2-1.34l6.58-13.62c.1-.23.29-.4.53-.53.15-.07.34-.12.54-.13a36.2 36.2 0 0015.63-4.13 42.79 42.79 0 005.53-3.43c.06-.04.09-.05.14-.1.4-.2.88-.18 1.26.04.46.26.7.74.66 1.26l-1.4 14.78c-.04.42-.29.75-.64.94z"/><path fill="#fff" d="M764.02 199.43a38.77 38.77 0 01-16.72 4.39c-.44 0-.89-.2-1.18-.6a1.23 1.23 0 01-.11-1.26l9.44-19.6c.1-.22.28-.4.52-.52.12-.07.25-.1.41-.14a45.46 45.46 0 0013.58-4.27c.42-.2.95-.17 1.35.11.4.28.64.73.57 1.19l-1.54 16.23c-.03.35-.22.63-.47.83a47.65 47.65 0 01-5.86 3.6l.01.04z"/><path fill="#fff" d="M771.24 179.66a47.57 47.57 0 01-14.34 4.53c-.46.07-.97-.14-1.26-.51-.29-.37-.38-.9-.16-1.32l6.85-14.19c.1-.23.3-.4.53-.53.17-.11.4-.13.64-.15 2.69.1 5.34-.03 7.9-.34.4-.06.81.07 1.11.38.3.26.45.67.43 1.04l-.96 10.17c-.04.41-.28.74-.64.93h-.1z"/><path fill="#fff" d="M772.23 169.53c-.12.06-.28.1-.4.13-2.73.34-5.52.47-8.31.36a1.4 1.4 0 01-1.12-.61 1.16 1.16 0 01-.09-1.2l5.4-11.2c.26-.57.7-1.04 1.28-1.32a3.42 3.42 0 013.39.27 3.2 3.2 0 011.43 2.98l-.92 9.71c-.04.42-.29.75-.64.94l-.02-.06z"/><path fill="#6049B0" d="M775.08 159.04l-.92 9.72-.95 10.16-1.54 16.23-1.4 14.78c-.06.8-.54 1.49-1.25 1.86-.18.08-.37.16-.56.2l-27 6.62a2.84 2.84 0 01-2.72-.87 2.47 2.47 0 01-.41-2.72l6.58-13.61 9.44-19.6 6.85-14.18 5.4-11.2a4.12 4.12 0 011.8-1.85 4.68 4.68 0 014.73.35 4.46 4.46 0 012.04 4.16l-.09-.05zm-3.75 11.92c-2.58.28-5.2.4-7.8.32a2.69 2.69 0 01-1.13-.3l-4.42 9.19c3.85-.72 7.6-2 11.37-3.85.48-.22.97-.3 1.51-.23l.5-5.13h-.03zm-1 10.58a48.5 48.5 0 01-13.18 3.91c-.53.06-1.1 0-1.6-.26l-7.11 14.8a35.3 35.3 0 0013.6-3.88 44.7 44.7 0 005.4-3.33l.28-.17c.48-.25 1.01-.31 1.55-.24l1.04-10.79.02-.04zm-6.97 16.76zm5.37-.17a49 49 0 01-4.07 2.37 39.77 39.77 0 01-17.26 4.55c-.44 0-.89-.1-1.3-.3l-5.5 11.42 27-6.62 1.1-11.41h.03zm.88-41.4c-.29.17-.6.41-.75.8l-4.2 8.7c2.18.01 4.35-.1 6.45-.37.23-.02.47-.01.69 0l.7-7.25c.16-1.63-1.68-2.55-2.86-1.92l-.03.04z"/><path fill="#fff" d="M815.42 359.17a74.77 74.77 0 01-26.11 7.93c-10.05 1.2-20.44 2.4-31.04 1.31-10.17-1.01-21.15-2.85-25.62-8.66-2.47-3.2-3.55-7.08-4.42-10.8-8.83-36.9-12.75-66.88-12.36-94.36.02-.86.02-1.74.03-2.62.02-3.97.07-8.09.65-12.06.19-1.3.49-2.55.8-3.78.54-2.17 1.02-4.21.85-6.34a44.68 44.68 0 00-1.2-6.73c-.86-3.8-1.76-7.75-1.07-11.91 1.06-6.33 3.62-12.37 6.02-17.48.83-1.8 1.7-2.89 2.78-3.42 1.93-1 4.03-.12 6.22 2.64a60.59 60.59 0 017.36 11.53 38.51 38.51 0 012.74 7.68c8.76-3.36 40.72-9.2 43.99-9.58 18.07-2.1 33.17.24 44.88 6.95 8.26 4.77 13.86 11.7 16.19 20.05 2.62 9.44.78 20.09-5.1 29.16a54.97 54.97 0 01-14.93 15.28 65.87 65.87 0 01-6.8 4.04 82.01 82.01 0 01-12.42 5.12l1.61 2.9c9.52 16.97 19.35 34.54 28.08 52.21.52 1.03 1.45 2.9.77 4.76-.38 1.11-1.26 1.83-1.89 2.39-7.07 6.04-13.39 10.4-19.9 13.76l-.1.03z"/><path fill="#6049B0" d="M847.67 229.22c2.75 9.88.81 20.99-5.28 30.45a56.48 56.48 0 01-15.35 15.72 69.63 69.63 0 01-6.97 4.15 83.2 83.2 0 01-10.86 4.6l.67 1.2c9.53 17 19.4 34.57 28.11 52.3.56 1.16 1.75 3.55.86 6.04-.55 1.49-1.64 2.43-2.35 3.04-7.16 6.1-13.59 10.55-20.23 13.97-8.4 4.32-17.13 7-26.72 8.11-10.15 1.19-20.63 2.41-31.44 1.35-10.57-1.06-22.03-3.02-26.9-9.37-2.7-3.5-3.8-7.57-4.76-11.44-8.87-37.03-12.8-67.14-12.37-94.76l.02-2.62c.04-4.04.08-8.19.66-12.26.2-1.37.51-2.7.82-3.96.5-2.06.96-3.96.83-5.83a45.4 45.4 0 00-1.15-6.47c-.9-3.95-1.83-8.07-1.1-12.55 1.08-6.5 3.7-12.68 6.14-17.88 1-2.14 2.08-3.45 3.45-4.15 1.9-1 4.93-1.25 8.44 3.13a60.9 60.9 0 017.57 11.87 40.86 40.86 0 012.35 6.08c11.02-3.52 39.37-8.67 42.5-9.01 18.48-2.17 33.94.26 46 7.2 8.67 5 14.57 12.3 17.02 21.1l.04-.01zM829 210.95c-13.31-7.65-29.2-8.41-43.75-6.72-3.96.48-38.9 6.97-44.7 9.95-.56.3-.83.54-.8.74a33.76 33.76 0 00-3.06-9.84c-1.95-4.11-4.56-8-7.13-11.2-1.56-1.97-2.87-2.74-4.03-2.13-.7.38-1.37 1.25-2.06 2.7-2.55 5.43-4.87 11.1-5.87 17.07-1.05 6.26 1.8 12.08 2.25 18.24.26 3.67-1.18 6.97-1.68 10.5-.7 4.69-.58 9.68-.64 14.44-.48 31.37 4.9 63.1 12.3 93.93.83 3.53 1.85 7.18 4.1 10.13 4.47 5.81 17.54 7.29 24.37 7.95 10.29 1.06 20.57-.16 30.66-1.32a73.3 73.3 0 0025.54-7.76c6.88-3.55 13.27-8.14 19.6-13.56.58-.47 1.18-1 1.45-1.7.41-1.12-.14-2.37-.7-3.5-9.48-19.21-20.1-37.99-30.62-56.78a80.72 80.72 0 0014.05-5.58c2.29-1.2 4.5-2.5 6.62-3.93a52.55 52.55 0 0014.52-14.84c10.1-15.65 8.06-36.2-10.43-46.82v.03z"/><path fill="#6049B0" d="M735.52 217.12c1.18-1.67-3.4-11.52-7.47-19.53a.95.95 0 00-.74-.5.8.8 0 00-.78.4c-.32.5-7.59 12.9-1.25 23.55.13.2.35.36.58.44.25.03.49.01.68-.14 2.22-1.54 6.35-3.93 7.91-3.76.26.04.48-.01.69-.13.15-.07.28-.2.38-.33zm-9.22 2.32c-3.92-7.6-.6-16.23.99-19.6 3.36 6.79 6.59 14.18 6.76 16.07-1.23.06-2.85.72-4.33 1.52a38.4 38.4 0 00-3.39 2h-.03z"/><path fill="#fff" d="M817.46 267.42a76.29 76.29 0 006.79 5.62l.66-.43c10.87-7.39 20.81-20.62 20.93-34.62 0-3.02-.4-6.03-1.36-9.06-4.64-14.45-21.13-23-36.5-24.77-3.1-.37-6.18-.51-9.28-.48-9.46 19.73 1.88 48.06 18.77 63.77l-.01-.03z"/><path fill="#fff" d="M821.6 213.24c-1.38-.32-2.1 1.72-.82 2.16 4.77 1.63 6.43 5.13 9.15 8.61.97 1.23 3.45.43 3.3-1.16-.53-5.33-6.4-8.43-11.63-9.61z"/><path fill="#6049B0" d="M763.4 224.3a5.08 5.08 0 01-1.96 7.18 5.8 5.8 0 01-7.53-2.3 5.08 5.08 0 011.97-7.18 5.8 5.8 0 017.53 2.3z"/><path fill="#fff" d="M719.44 359.53c-4.02 5-7.94 10.32-9.46 16.58-1.53 6.26-.14 13.73 5.04 18.14 5.79 4.92 14.28 4.71 21.54 3.2 4.63-.97 9.35-2.44 12.5-5.77-5.7-2.3-8.53-8.8-8.95-14.67-.43-5.9.82-11.72.19-17.6-.4-3.54-3.87-17-8.96-16.4-2.89.36-9.9 14.01-11.87 16.48l-.03.04z"/><path fill="#6049B0" d="M750.03 392.6c.29-.3.4-.71.28-1.12-.1-.42-.4-.75-.83-.89-5.38-2.16-7.75-8.64-8.08-13.55-.2-2.66-.02-5.45.13-8.1.2-3.1.4-6.33.04-9.54-.3-2.67-2.69-13.15-7.02-16.48a4.59 4.59 0 00-3.46-1.07c-2.26.27-4.86 4.05-9.88 12.44a54.1 54.1 0 01-2.83 4.48c-4.04 5.04-8.1 10.49-9.7 17.04-1.8 7.42.34 15.04 5.47 19.4 5.17 4.39 12.77 5.58 22.69 3.5 2.7-.54 5.79-1.35 8.65-2.82 1.64-.83 3.2-1.92 4.5-3.32l.04.03zm-29.54-32.24c.65-.8 1.7-2.54 3-4.75 1.96-3.25 6.55-10.9 8.08-11.3.47-.04.93.12 1.43.5 3.16 2.44 5.63 11.4 5.99 14.7.33 3.01.14 6.1-.03 9.13-.16 2.75-.36 5.58-.14 8.44.4 5.36 2.73 11.82 8.03 14.93-3.04 2.45-7.22 3.56-10.62 4.27-9.05 1.87-15.9.9-20.37-2.9-4.38-3.73-6.2-10.34-4.62-16.86 1.48-6.09 5.39-11.33 9.25-16.16z"/><path fill="#fff" d="M654.61 318.25c1.03-.93 2.46-1.34 3.82-1.74 13.6-4.24 25.18-12.99 34.23-23.5 4.97-5.74 26.66-31.12 21.1-39.82 10.24 15.95 7.48 36.75-1.9 52.19-6.12 10.05-14.64 18.33-23.72 25.83-4.78 3.97-13.3 14.96-19.7 15.35-12.12.74-22.61-20.54-13.8-28.32h-.03z"/><path fill="#6049B0" d="M684.36 336.66c1.75-1.74 3.34-3.4 4.63-4.46 11.23-9.28 18.62-17.32 23.99-26.14 10.7-17.58 11.44-38.58 1.87-53.47a1.36 1.36 0 00-1.8-.45 1.2 1.2 0 00-.36 1.72c3.23 5.02-4.65 19.35-21 38.33-9.77 11.33-21.42 19.31-33.7 23.14l-.22.06c-1.32.41-2.83.88-4.03 1.91-4.34 3.86-4.86 11.14-1.31 18.56 3.65 7.63 10 12.34 16.18 11.94 1.32-.08 2.7-.54 4.1-1.25 4.01-2.09 8.2-6.31 11.72-9.9l-.07.01zm-25.72-18.88l.26-.06c12.72-3.96 24.77-12.21 34.79-23.84 9.63-11.2 20.11-25.03 21.96-34.4 5.75 13.47 4.03 30.57-4.9 45.26-5.2 8.57-12.45 16.44-23.49 25.53-1.37 1.15-3.02 2.83-4.82 4.62-4.23 4.3-10.04 10.2-14.18 10.42-5.76.33-10.94-4.97-13.54-10.41-2.32-4.87-3.51-11.9.8-15.72.24-.23.57-.4.9-.59.65-.32 1.43-.58 2.25-.84l-.02.04z"/><path fill="#fff" d="M671.48 370.44c-4.6-3.44-9.52-7.34-10.87-12.75-1.33-5.34 1.38-10.77 5.33-14.43 3.94-3.66 8.99-6 13.71-8.69 19.05-10.87 33.57-28.6 40.27-49.16.62 2.94 1.27 5.83 1.72 8.78 3.43 22.53-4.9 45.82-21.7 60.63-5.51 4.89-9.67 8.97-12.95 15.49-1.93 3.82.38 5.06-5.25 5.12-3.44.05-7.59-3.03-10.22-4.97l-.04-.02z"/><path fill="#6049B0" d="M687.3 373.45c.13-.7.3-1.53.83-2.57 3.27-6.55 7.5-10.55 12.68-15.11 17.12-15.13 25.56-38.75 22.1-61.72-.46-2.97-1.1-5.94-1.72-8.87-.13-.55-.62-1-1.22-1.07a1.2 1.2 0 00-1.3.82c-6.57 20.2-21.04 37.87-39.7 48.52-1.03.59-2.07 1.14-3.1 1.73-3.75 2.05-7.64 4.17-10.8 7.13-4.86 4.52-6.97 10.35-5.67 15.6 1.4 5.67 6.19 9.6 11.37 13.47 2.64 1.98 7.1 5.28 11.06 5.25 1.92-.02 3.15-.18 3.95-.6.92-.5 1.3-1.3 1.55-2.62l-.03.04zm-15.05-4.01c-4.79-3.56-9.2-7.18-10.37-11.99-1.28-5.18 1.75-10.25 4.99-13.3 2.97-2.78 6.7-4.8 10.33-6.78a90.55 90.55 0 0042.4-47.23c.3 1.38.54 2.75.75 4.12 3.36 22.18-4.82 44.99-21.33 59.6-5.19 4.57-9.75 8.91-13.22 15.82a11.43 11.43 0 00-1.03 3.16c-.23 1.17-.26 1.28-3.12 1.3-3.03 0-7.18-3.07-9.4-4.7z"/><path fill="#fff" d="M690.44 300.15c-8.52 10.22-41.2 33.28-44.51 4.04-2.25-19.56 25.04-28.18 35.92-40.35 3.03-3.4 5.34-7.35 8.33-10.75 9.63-10.85 26.3-15.87 31.51-29.46a46.63 46.63 0 01-1.01 25.26c-2.04 6.15-5.38 11.7-8.69 17.2l-11.3 18.82c-3.14 5.26-6.32 10.53-10.22 15.23l-.03.01z"/><path fill="#6049B0" d="M691.45 300.96c3.98-4.79 7.22-10.17 10.35-15.37l11.3-18.81c3.28-5.5 6.7-11.17 8.79-17.43a47.97 47.97 0 001.05-25.92 1.4 1.4 0 00-1.18-1.04c-.57-.06-1.1.23-1.29.75-3.02 7.91-10.08 12.76-17.54 17.9-4.84 3.34-9.84 6.81-13.73 11.2-1.55 1.73-2.9 3.61-4.2 5.42-1.31 1.8-2.64 3.65-4.13 5.33-3.4 3.83-8.49 7.3-13.85 10.95-11.23 7.68-23.94 16.36-22.35 30.32.93 8.08 4.12 13.08 9.47 14.81 5.33 1.74 11.99-.17 18.3-3.41 8.25-4.25 15.87-10.86 19.08-14.68l-.07-.02zm27.96-52.51c-2.01 6.04-5.34 11.59-8.59 16.98l-11.3 18.81c-3.07 5.15-6.27 10.46-10.13 15.08-6.35 7.63-24.34 20.69-34.6 17.36-4.25-1.39-6.83-5.62-7.62-12.58-1.43-12.54 10.15-20.44 21.35-28.11 5.5-3.76 10.68-7.31 14.28-11.33a69.99 69.99 0 004.28-5.5c1.28-1.77 2.58-3.6 4.04-5.24 3.69-4.18 8.58-7.55 13.31-10.8 6.35-4.36 12.86-8.88 16.7-15.39a44.75 44.75 0 01-1.72 20.72z"/><path fill="#fff" d="M669.17 239.46c-5.6 9.38-8.8 19.98-11.54 30.6-2.3 9.03-5.1 19.16-13.62 23.27 1.89-.93 7.6.62 10.42-.3 3.48-1.14 6.81-3.53 9.63-5.7 6.89-5.21 11.9-12.25 16.21-19.55 5.08-8.61 12.32-15.8 20.33-21.87 5.45-4.12 18.47-8.23 21.46-14.44 6.57-13.54-11.79-13.81-20.58-13.36-14.73.75-24.6 8.68-32 20.8-.1.2-.23.36-.3.55z"/><path fill="#6049B0" d="M664.91 288.31c7.64-5.8 12.84-13.69 16.52-19.9 4.52-7.62 11.27-14.87 20.02-21.52 1.81-1.38 4.62-2.8 7.58-4.29 5.7-2.9 12.14-6.17 14.25-10.54 1.97-4.03 2-7.4.14-9.97-2.9-4.05-10.33-5.82-22.04-5.21-13.85.71-24.64 7.68-33 21.34l-.35.56c-5.76 9.66-9 20.54-11.66 30.9-2.11 8.27-4.73 18.53-12.96 22.5-.63.3-.84 1.06-.51 1.69.33.63 1.13.88 1.76.6.64-.3 2.58-.15 4.13-.05 2.2.19 4.49.35 6.15-.19a25 25 0 003.11-1.32c2.38-1.25 4.7-2.9 6.92-4.54l-.06-.06zm-6-17.91c2.6-10.19 5.8-20.89 11.39-30.3l.31-.55c8.02-13.1 17.9-19.55 31.04-20.23 10.42-.53 17.41.9 19.69 4.05 1.26 1.77 1.13 4.27-.4 7.46-1.78 3.68-7.86 6.76-13.2 9.47-3.05 1.54-5.94 3.02-7.93 4.51-9.01 6.81-15.96 14.28-20.64 22.18-3.56 6.04-8.63 13.7-15.9 19.24-2.96 2.24-6.14 4.46-9.27 5.52-1.19.38-3.28.2-5.14.08l-.29-.03c6.22-5.36 8.55-14.5 10.35-21.47l-.02.07z"/><path fill="#fff" d="M703.82 340.2c-4.85 4.96-10.45 9.32-14.6 14.86-4.2 5.55-6.91 12.68-5.04 19.58 1.7 6.34 6.99 11.41 12.74 14.98 3.53 2.2 7.89 4.04 11.64 2.66 4.81-1.73 6.16-7.44 7.55-12.25 4.88-16.8 17.2-31.93 16.04-50.47a32.84 32.84 0 00-1.44-7.95c-1.77-5.55-5.23-11.09-9.08-15.56-2.03 14.32-7.41 23.51-17.84 34.15h.03z"/><path fill="#6049B0" d="M717.1 381.35l.24-.9c1.7-5.84 4.37-11.63 6.96-17.24 4.85-10.48 9.9-21.36 9.12-33.65a34.18 34.18 0 00-1.5-8.28c-1.7-5.29-5-11-9.33-16.03-.33-.4-.87-.57-1.35-.46-.48.12-.84.5-.9 1-1.89 13.3-6.64 22.4-17.52 33.5-1.65 1.68-3.43 3.32-5.14 4.92-3.32 3.1-6.78 6.34-9.61 10.04-2.97 3.93-7.62 11.83-5.23 20.61 2 7.42 8.37 12.67 13.32 15.79 4.99 3.1 9.32 4.07 12.83 2.82.4-.14.76-.32 1.13-.48 4.23-2.17 5.66-7.19 6.95-11.63l.03-.01zm-12.31-40.27c10.5-10.72 15.49-19.65 17.7-32.01a43 43 0 016.97 12.87c.75 2.33 1.2 4.9 1.39 7.67.72 11.69-4.17 22.25-8.92 32.51-2.64 5.69-5.33 11.52-7.1 17.54l-.28.91c-1.27 4.51-2.63 9.18-6.55 10.56-2.7.95-6.24.1-10.5-2.53-4.56-2.84-10.37-7.62-12.15-14.2-1.54-5.7.22-12.43 4.86-18.56 2.7-3.57 6.05-6.7 9.32-9.73 1.75-1.61 3.51-3.29 5.2-5.01l.06-.02z"/><path fill="#fff" d="M195.32 138.64c.25.85.6 1.63 1.05 2.4.13.56.28 1.12.48 1.7-.9 0-1.77.12-2.6.32-5.4 1.3-9.53 6.38-9.4 11.73.12 6.18 5.4 11.93 11.83 13.6 2.98.8 6.12.75 9.07.04a19.7 19.7 0 008.96-4.83c1.72 2.9 4.58 4.98 7.85 6.17l-14.67-47.8c-8.95 2.9-14.48 9.99-12.58 16.67h.01z"/><path fill="#6049B0" d="M222.57 169.77a14.78 14.78 0 01-7.84-6.18 19.48 19.48 0 01-8.96 4.84c-2.96.7-6.09.75-9.08-.04-6.4-1.68-11.68-7.42-11.83-13.6-.12-5.35 4-10.44 9.4-11.73.84-.2 1.71-.3 2.61-.32-.2-.59-.37-1.14-.49-1.71-.44-.75-.8-1.55-1.04-2.4-1.91-6.67 3.62-13.74 12.59-16.68l-.56-1.82c-4.44 1.41-8.23 3.83-10.84 6.9-3.15 3.7-4.26 7.97-3.1 12.02.2.7.47 1.4.81 2.07-.17.05-.34.07-.52.11-6.31 1.52-10.98 7.33-10.83 13.52.16 6.83 5.88 13.48 13.33 15.42 3.22.84 6.72.87 10.12.06 2.93-.7 5.73-2.03 8.08-3.81a18.42 18.42 0 008.84 5.52l-.67-2.18h-.02zm63.56-32.03a25.9 25.9 0 0012.14-14.96c.11-.32-.07-.66-.38-.8a.76.76 0 00-.74.09 20.6 20.6 0 01-2.56 1.74c-9.51 5.41-22.23 2.44-28.34-6.64a18.17 18.17 0 016.18-26.3 19.92 19.92 0 012.95-1.4.6.6 0 00.3-.6.68.68 0 00-.48-.55l-.1-.02c-6.82-1.21-13.8-.1-19.66 3.14-6.73 3.72-11.32 9.73-12.93 16.94-1.6 7.22 0 14.62 4.52 20.85a29.97 29.97 0 0017.95 11.6c4.59 1 9.24.94 13.62-.1a28.32 28.32 0 007.55-3h-.02zm-13.52-48.48a19.4 19.4 0 00-7.54 28.58c6.52 9.68 20.1 12.87 30.25 7.08l.9-.55a24.81 24.81 0 01-10.85 12.26c-12.47 7.11-28.84 3.56-37.25-8.1-4.3-5.94-5.83-12.98-4.29-19.85a24.35 24.35 0 0112.32-16.13A27.55 27.55 0 01263 89.9c3.1-.74 6.35-.96 9.6-.63z"/><path fill="#fff" d="M234.82 170.02c6.8-2.5 11.44-8.62 13.25-15.28a19.16 19.16 0 0010.78.5l.46-.1c9-2.4 14.18-10.67 11.56-18.48-1.4-4.2-4.77-7.39-8.98-9.1a6.55 6.55 0 00-2.88-.9 19.48 19.48 0 00-5.81-.4c-.32-4.29-4.94-8.4-11.2-9.64a17.5 17.5 0 00-7.43.06c-3.72.9-6.49 3.12-7.07 6.15-.07.35-.1.7-.1 1.04-4.41-2.85-10.92-3.95-17.55-2.48l-.48.11c-.72.17-1.4.37-2.07.59l14.66 47.8a19.3 19.3 0 0012.82.12h.04z"/><path fill="#6049B0" d="M235.6 171.75c6.35-2.34 11.44-7.74 13.84-14.68a21.35 21.35 0 0010.48-.14 18.78 18.78 0 0011.26-8.03 14.8 14.8 0 001.63-12.58l-.05-.19c-1.52-4.5-5.16-8.23-10-10.24a8.5 8.5 0 00-3.5-1.1c-1.44-.3-2.91-.48-4.41-.48-1.1-3.56-4.47-6.75-8.95-8.52a21 21 0 00-3.53-1.04c-.02-.01-.04 0-.06-.02a19.65 19.65 0 00-8.26.1 15.28 15.28 0 00-4.25 1.75 9.34 9.34 0 00-3.8 4.35c-4.78-2.17-10.78-2.7-16.64-1.4l-.52.12c-.7.17-1.4.38-2.07.59l.56 1.82c.68-.22 1.37-.42 2.07-.59l.48-.11c6.63-1.47 13.13-.36 17.54 2.49.01-.35.04-.7.1-1.04.6-3.02 3.37-5.26 7.09-6.16a17.5 17.5 0 017.43-.06c6.25 1.25 10.87 5.36 11.2 9.65a18.7 18.7 0 015.8.4c1.01.06 1.97.37 2.88.9 4.21 1.7 7.56 4.9 8.97 9.1 2.63 7.8-2.55 16.07-11.55 18.47l-.46.11c-3.72.9-7.49.64-10.78-.5-1.81 6.66-6.45 12.77-13.25 15.27a19.3 19.3 0 01-12.82-.11l.67 2.18a21.3 21.3 0 0010.87.3 16.6 16.6 0 002.07-.62h-.03zM716.1 743.5c.02.06 0 .17.02.22.01.05.03.1 0 .16 0 0 0 .05-.04.06.01.05-.04.07-.02.12-.02.1-.06.17-.08.28 0 0 .02.05-.03.07l-51.49 95.94-.05.01-.1.2c-.06 0-.04.05-.1.07l-.25.22c-.14.09-.3.12-.4.15-.2.05-.37.03-.53.02-.06.01-.12-.03-.17-.01-.12-.03-.25-.1-.37-.13l-.07-.04-97.17-56.06-.01-.05c-.07-.04-.14-.07-.15-.12-.07-.04-.13-.08-.15-.13l-.02-.05c-.01-.05-.08-.09-.1-.14 0-.05-.09-.14-.1-.19l-.07-.2-.06-.2v-.21c-.02-.05-.04-.1 0-.16l-.02-.05c.04-.06.02-.12.04-.23.04-.06.02-.11.04-.22l-.01-.05 23.26-48.21c.07-.13.1-.2.18-.32.05 0 .03-.06.08-.07a.36.36 0 01.18-.15c.05-.01.08-.07.08-.07.1-.03.2-.1.3-.13l.1-.02 79.16-18.52c.15-.04.37-.04.54-.03.05 0 .07.04.12.03.17.01.35.08.5.2l46.21 26.8s.02.05.07.04c.06.03.13.07.15.12.06.04.13.08.16.18 0 0 .01.05.06.04.02.05.04.1.1.13.02.05.1.14.11.2l.07.2.06.2-.02.1zm-54.19 92.3l6.42-78.19-57.43 15.4 51.07 62.77-.06.02zm-53.85-67.22l16.04-39.85-32.7 7.63 16.66 32.22zM666.44 755l-39.14-26.18-16.53 41.1 29.15-7.8 26.52-7.12zm31.22-8.36l13.13-3.53-40.82-23.67 1.38 34.27 26.26-7.06h.05zm-30.7-27.93l-36.73 8.6 38.11 25.51-1.39-34.11zm-98.2 62.54l37.32-10.04-16.8-32.5-20.52 42.54zm.98 2.83l87.28 50.36-49.25-60.57-37.98 10.2-.05.01zM711.57 746l-40.21 10.79-6.18 75.6 46.37-86.43.02.04zM146.42 442.83c-.94 4.51-1.66 9.11-2.22 13.81l3.5-.84c.42-3.48.95-6.9 1.64-10.25l-2.88-2.73h-.04zm-64.27 28.71A175.62 175.62 0 0188.63 453c9.63-23.08 21.74-37.94 28.04-44.66l-1.83-3.08c-6.2 6.42-19 21.6-29.24 46.19a172.77 172.77 0 00-7.23 20.95l3.81-.91-.03.05zm54.41-37.99l-2.51.42a327.03 327.03 0 00-6.84 26.75l3.76-.9a311.15 311.15 0 016.55-25.4l-.91-.88-.05.01zm-21.24 3.55l-4.05.7a192.9 192.9 0 00-10.53 29.27l3.77-.9c2.67-9.45 6.2-19.15 10.82-29.03v-.04z"/><path fill="#6049B0" d="M114.84 405.26l-10.97-18.36a3.12 3.12 0 010-3.33l.06-.1c.72-1 1.95-1.53 3.22-1.33l26.8 4.43 17.79-18.74a3.34 3.34 0 013.41-.82 3.5 3.5 0 012.43 2.61l5.33 25.88 24.82 11.57a3.54 3.54 0 012.06 2.93c.02.68-.12 1.3-.47 1.8-.28.48-.72.86-1.24 1.12l-23.51 11.58-2.47 25.88a2.96 2.96 0 01-1.33 2.19l-2.28.55a3.5 3.5 0 01-2.02-.98l-7.11-6.69-2.88-2.73-8.94-8.4-.92-.87-2.51.42-18.72 3.17-4.05.7-1.02.15c-1.24.2-2.56-.3-3.37-1.29-.82-1-.99-2.32-.46-3.45L117.73 410l-1.05-1.76-1.82-3.07-.02.1zm39.46-35.12l-18.94 19.97-28.56-4.69 14.77 24.66-11.98 24.7 28.04-4.72 21.15 19.93 2.59-27.6 25.08-12.36-26.44-12.32-5.67-27.58h-.04zm69.2 200.98c20.53-11.78 25.7-29.18 23.88-40.52-1.1-6.8-4.73-11.96-9.45-13.43-9.96-3.09-17.1 3.28-19.7 6.15-3.08-2.6-11.4-8.36-20.72-4.57-5.36 2.2-8.33 7.8-8.03 14.98.55 12.24 10.9 28.56 32.7 37.48.16.05.32.1.5.1.29.03.6-.05.87-.2h-.05zm-6.19-44.71c.34.33.76.5 1.22.48a1.5 1.5 0 001.12-.59c.3-.39 6.98-9.61 17.46-6.33 3.59 1.1 6.37 5.32 7.26 10.94 1.68 10.33-3.1 26.22-21.9 37.3-20.03-8.42-29.48-23.32-30.02-34.46-.26-6.01 2.1-10.6 6.3-12.29 2.24-.9 4.34-1.18 6.34-1.02 6.82.46 11.95 5.67 12.22 5.97zM136.7 584.6a204.85 204.85 0 01-11.8-52.53c1.2 18.11 4.85 36.54 12.31 53.92a1.65 1.65 0 01-.1 1.49c-.22.32-.53.53-.9.67l-.05.01 23.71-5.78c.44-.1.73-.36.95-.69.22-.37.31-.8.17-1.27-.25-.8-20.28-68.71-13.33-124.47l-3.5.84c-5.98 51.5 10.16 112.31 13.14 122.78l-20.65 5.05.05-.01zm-53.37 20.35c.43.22.96.27 1.41.07l26.26-9.9-.1.02c-.8.24-1.67-.2-2.05-.97l-.71-1.56-23 8.71c-15.8-56.05-11.7-99.44-2.95-129.65l-3.8.91c-8.59 30.9-12.23 74.87 4 131.32.15.47.46.85.9 1.06h.04z"/><path fill="#6049B0" d="M108.14 592.6c.44 1 .65 1.54.71 1.57a1.81 1.81 0 002.06.97l.09-.02 25.25-6.98.04-.01c.4-.1.68-.35.9-.67l.1-.16c.2-.42.2-.87.01-1.33-7.5-17.37-11.12-35.81-12.31-53.92-1.76-26.32 1.68-51.9 6.05-72.16l-3.76.9c-.84 3.95-1.62 8.06-2.35 12.35-5.03 29.91-7.59 73.48 8.54 112.29l-22.18 6.1c-2.27-5.3-10.31-25.6-13.04-53.88a193.87 193.87 0 016.37-71.41l-3.76.9a198.22 198.22 0 00-5.91 70.8c2.78 28.45 10.84 48.98 13.26 54.6l-.07.07zm51.82-139.38c.29-.11.58-.23.84-.43l-2.29.55c.48.07.99.04 1.45-.12zm89.8-150.78l-6.95 9.4-6.94 9.39-6.95 9.39c-.08.1-.2.18-.35.22-.05.01-.07.05-.12.06a.84.84 0 01-.25 0l-12.18-1.64-12.18-1.64-12.18-1.65a.73.73 0 01-.53-.37l-5.15-10.97-5.16-10.97-5.05-10.72a.87.87 0 01-.19-.23c-.08-.2-.08-.45.07-.63l6.9-9.35 6.87-9.35 6.88-9.34c.14-.18.36-.28.57-.22l12.18 1.64 12.18 1.65 12 1.6c.09-.05.22-.08.34-.06.23.03.42.18.53.37l5.24 10.96 5.23 10.95 5.24 10.95a.6.6 0 01-.06.62v-.06zm-40.42-35.77l-6.05 8.2 10.69 1.45 6.05-8.2-10.7-1.45zm-1.6 20.34l-6.03 8.2 10.72 1.44 6.02-8.2-10.71-1.44zm-6.09 9.46l4.51 9.6 10.7 1.45-4.6-9.6-10.63-1.44.02-.01zm-12.18-1.64l4.52 9.6 10.69 1.45-4.52-9.6-10.69-1.45zm34.65 3.97l-4.6-9.6-6.06 8.17 4.56 9.68 6.1-8.25zm6.94-9.39l-4.6-9.61-6.12 8.25 4.6 9.61 6.12-8.25zm-5.77-10.33l-10.71-1.44-6.05 8.21 10.71 1.44 6.05-8.2zm-29.76 6.3l-6.02 8.2 10.69 1.44 6.02-8.2-10.69-1.45zm-.93 20.4l4.53 9.65 10.69 1.45-4.53-9.65-10.7-1.45zm12.18 1.64l4.52 9.65 10.72 1.45-4.53-9.66-10.72-1.44zm-10.42-23.19l10.69 1.45 6.05-8.2-10.7-1.46-6.04 8.21zm32.97 25.53l-4.6-9.61-6.12 8.25 4.6 9.61 6.12-8.25zm6.94-9.4l-4.6-9.6-6.12 8.25 4.6 9.6 6.12-8.24zm-58.94-8.46l10.68 1.45 6.03-8.2-10.7-1.45-6.01 8.2zm-.06 1.29l4.51 9.6 10.7 1.45-4.52-9.6-10.69-1.45zm65.95-2.21l-4.6-9.61-6.12 8.25 4.6 9.6 6.12-8.24zm-9.81-20.57l-6.12 8.25 4.6 9.61 6.12-8.25-4.6-9.61zm-1.25-.7l-10.72-1.44-3.5 4.8-2.54 3.43 10.72 1.44 6.05-8.2-.01-.03zm-41.09 3.5l10.7 1.45 6.04-8.21-10.69-1.45-6.05 8.2zm-6.87 9.35l10.7 1.44 6.05-8.2-10.7-1.45-6.04 8.2zm-1.76 21.54l4.53 9.65 10.69 1.45-4.53-9.65-10.7-1.45zm20.4 22.07l-4.53-9.66-10.69-1.44 4.53 9.65 10.69 1.45zM215 327.8l-4.52-9.65-10.7-1.45 4.54 9.65L215 327.8zm12.18 1.65l-4.53-9.66-10.71-1.44 4.53 9.65 10.71 1.45zm7.39-8.78l-4.6-9.64-6.13 8.25 4.6 9.64 6.13-8.25zm6.94-9.4l-4.6-9.63-6.12 8.25 4.6 9.61 6.11-8.25.01.03zm6.95-9.38l-4.6-9.64-6.13 8.25 4.6 9.64 6.13-8.25zm341.16 157.22l6.55-15.95c.12-.3.13-.6 0-.91l-3.06-7.95c-.19-.5-.68-.85-1.24-.88a1.28 1.28 0 00-1.25.74l-8.63 20.98-.1.37c.92.42 2.09.95 3.22 1.5l-.49-1.24 7.22-17.5 1.67 4.31-6.35 15.39c1.02.5 1.9.9 2.42 1.15h.04zm-42.85 27.24c.21-.33.25-.74.1-1.11l-3.05-7.95a1.4 1.4 0 00-1.35-.9l-32 .98c-.42 0-.8.22-1 .54-.22.32-.27.74-.12 1.11l3.06 7.95c.2.56.76.9 1.35.9l32-.98c.14 0 .24-.02.37-.05.24-.1.5-.26.64-.5zm-34.34-6.5l29.28-.9 2.08 5.44-29.28.89-2.08-5.44zm96.34-4.05c.18-.31.2-.7.06-1.03l-3.06-7.94c-.22-.63-.92-1-1.57-.88l-32.91 6.92c-.36.08-.67.3-.85.6-.18.32-.2.7-.06 1.04l3.05 7.94c.23.63.93 1 1.58.88l32.91-6.92.13-.03c.31-.1.56-.3.72-.58zm-35.4-.72l30.36-6.38 2.1 5.5-30.35 6.37-2.1-5.5z"/><path fill="#D891AA" d="M542.62 477.65l3.02 7.95 11.72 16.72-3.06-7.95-11.68-16.72z"/><path fill="#6049B0" d="M557.8 503.53a1.42 1.42 0 01-1.55-.54l-11.68-16.73a1.02 1.02 0 01-.16-.3l-3.06-7.94c-.22-.62.02-1.3.63-1.54a1.38 1.38 0 011.7.47l11.68 16.73c.06.08.12.17.16.3l3.06 7.94c.22.62-.02 1.3-.63 1.54-.07.02-.09.06-.15.07z"/><path fill="#6049B0" d="M558.37 503.16l17.35-20.24c.27-.33.37-.8.2-1.23l-3.02-7.95a1.4 1.4 0 00-1.03-.88c-.47-.09-.95.06-1.25.4l-17.35 20.24c-.27.34-.37.8-.2 1.24l3.05 7.94a1.4 1.4 0 001.7.84c.22-.08.43-.2.58-.37h-.03zm12.84-26.51l1.95 5.13-15.41 18-1.95-5.13 15.4-18z"/><path fill="#6049B0" d="M555.35 495.2l17.05-19.92 32.5-6.82c.52-.1.9-.52.98-1.05a1.37 1.37 0 00-.71-1.32l-20.22-10.94 8.2-19.94c.2-.49.06-1.03-.33-1.41-.4-.38-1.02-.5-1.47-.3l-30.1 12.96-27.13-5.96c-.41-.1-.83 0-1.12.27-.3.27-.46.65-.4 1.05l2.34 18.9-25.08 16.82c-.45.32-.65.9-.44 1.47.2.56.76.9 1.34.9l31.25-.96 11.26 16.1a1.4 1.4 0 001.54.55c.22-.08.42-.2.58-.37l-.04-.03zm-18.26-32.77c.37-.26.58-.68.51-1.14l-2.25-17.9 25.8 5.67c.3.06.57.04.82-.06l27.4-11.8-7.38 17.94c-.27.61.02 1.32.64 1.65l18.23 9.86-29.6 6.23c-.3.06-.53.19-.71.4l-16.22 18.95-10.68-15.27c-.26-.38-.74-.6-1.19-.6l-27.39.85 21.99-14.77h.03zm-170.94-344.6l3.87-9.42a.7.7 0 000-.54l-1.81-4.69a.83.83 0 00-.73-.52.76.76 0 00-.74.43l-5.1 12.4c-.02.06-.03.15-.06.21l1.9.89-.28-.74 4.26-10.33.99 2.55-3.75 9.09c.6.3 1.12.53 1.43.67h.02zm-25.3 16.08c.12-.19.15-.44.06-.65l-1.8-4.7a.83.83 0 00-.8-.53l-18.9.58a.71.71 0 00-.66.98l1.8 4.69c.13.33.46.53.8.53l18.9-.58c.08 0 .14 0 .22-.03.14-.05.3-.15.38-.29zm-20.28-3.84l17.29-.53 1.23 3.21-17.3.53-1.22-3.2zm56.89-2.39a.7.7 0 00.03-.6l-1.8-4.7a.84.84 0 00-.93-.51l-19.44 4.08c-.2.05-.4.18-.5.36a.7.7 0 00-.03.61l1.8 4.7c.14.36.55.58.93.51l19.44-4.09.07-.01a.76.76 0 00.43-.35zm-20.9-.42l17.92-3.77 1.24 3.25-17.92 3.76-1.24-3.24z"/><path fill="#D891AA" d="M338.4 128.78l1.78 4.7 6.92 9.86-1.8-4.7-6.9-9.86z"/><path fill="#6049B0" d="M347.36 144.06a.84.84 0 01-.92-.32l-6.9-9.88-.09-.18-1.8-4.69c-.13-.36 0-.76.37-.9a.81.81 0 011 .27l6.9 9.88c.04.05.07.1.1.18l1.8 4.69c.13.36-.01.76-.37.9-.04.02-.05.04-.1.05z"/><path fill="#6049B0" d="M347.7 143.84l10.24-11.95c.16-.2.22-.47.12-.73l-1.79-4.7a.82.82 0 00-.6-.51.78.78 0 00-.74.24l-10.24 11.94a.73.73 0 00-.13.73l1.8 4.7a.82.82 0 001.02.5.89.89 0 00.34-.23h-.02zm7.58-15.66l1.15 3.03-9.1 10.63-1.15-3.02 9.1-10.63z"/><path fill="#6049B0" d="M345.91 139.14l10.07-11.76 19.19-4.03c.3-.05.54-.31.58-.62a.81.81 0 00-.42-.78l-11.94-6.46 4.84-11.77a.76.76 0 00-.2-.84.81.81 0 00-.86-.17l-17.77 7.65-16.02-3.52a.7.7 0 00-.67.16.72.72 0 00-.23.62l1.38 11.15-14.8 9.94a.73.73 0 00-.27.87c.12.33.45.53.8.53l18.45-.57 6.64 9.52a.83.83 0 00.92.32.89.89 0 00.34-.22l-.03-.02zm-10.78-19.35c.22-.15.35-.4.3-.67l-1.32-10.57 15.23 3.34c.18.04.34.02.48-.03l16.19-6.97-4.37 10.6c-.15.35.02.77.38.97l10.77 5.82-17.49 3.68a.74.74 0 00-.41.24l-9.58 11.18-6.3-9.01a.85.85 0 00-.7-.35l-16.18.5 12.98-8.73h.02zm246.36-43.23c18.94-21.4 18.12-43.92 11.65-56.65-3.88-7.66-10.06-12.43-16.03-12.45-12.62-.04-18.32 10.1-20.16 14.44-4.59-1.97-16.25-5.75-25.48 2.15-5.26 4.5-6.53 12.23-3.38 20.63 5.4 14.27 23.52 29.84 51.93 32.45.23 0 .4.02.61-.03.37-.1.66-.27.91-.56l-.05.02zm-24.4-50.67c.48.27 1.07.35 1.57.12.51-.18.9-.6 1.08-1.1.18-.54 4.26-13.9 17.51-13.85 4.55.02 9.34 3.95 12.6 10.31 5.9 11.64 6.62 32.17-10.67 52.11-26.16-2.7-42.79-16.9-47.67-29.85-2.66-7-1.68-13.27 2.46-16.83a16.43 16.43 0 016.88-3.49c8.04-1.93 15.84 2.4 16.3 2.61l-.06-.03zm258.24 409.36l6.55-11.16 13.51-.62c.69-.02 1.3-.47 1.59-1.06a1.9 1.9 0 00-.37-1.93l-9.32-10.04 2.89-12.68c.18-.64-.13-1.4-.65-1.86a1.98 1.98 0 00-1.94-.36l-12.26 4.96-11.73-7.21a1.91 1.91 0 00-2-.05c-.57.36-.91.97-.84 1.7l1.74 13.13-10.12 8.2a1.8 1.8 0 00-.6 1.8 2 2 0 001.5 1.36l13.3 3.17 5.45 12.32c.29.68.95 1.12 1.65 1.17.24.02.45-.03.6-.06.42-.1.85-.43 1.12-.8l-.07.02zm-9.7-24.93c.48-.42.7-.92.59-1.56l-1.36-10.39 9.29 5.71c.55.32 1.18.4 1.73.19l9.76-3.92-2.32 10.06c-.13.56.06 1.19.42 1.63l7.4 7.96-10.75.48c-.6 0-1.18.36-1.4.86l-5.2 8.89-4.36-9.74a2.05 2.05 0 00-1.33-1.1l-10.58-2.48 8.06-6.5.05-.09zm76.23 133.76a.98.98 0 01-.39 1.1l-4.55 3.37 1.53 6.45c.1.42-.06.83-.4 1.08a.91.91 0 01-.38.19c-.26.06-.55.03-.79-.08l-6.25-3.08-5.87 3.14a.81.81 0 01-.24.1c-.32.07-.7-.01-.96-.22-.36-.25-.57-.71-.48-1.1l1.25-6.6-5.83-5.86a1.09 1.09 0 01-.24-1.24c.15-.3.4-.5.72-.58.13-.02.26-.02.4-.02l6.77.71 2.37-6.33c.1-.33.41-.58.73-.65.1-.03.2-.05.3-.04.46.03.89.3 1.09.72l2.9 6.7 7.43 1.37c.44.1.82.4.94.82l-.05.05zm-1.1.23l-8.05-1.5-3.16-7.27-2.65 7.11-7.62-.81 6.26 6.26-1.35 7.17 6.37-3.4 6.8 3.32-1.7-7.12 5.13-3.77h-.03zM333.3 78a.98.98 0 01-.39 1.11l-4.55 3.37 1.53 6.44c.09.42-.06.83-.4 1.08-.1.1-.26.16-.39.2-.25.06-.54.02-.78-.09l-6.25-3.07-5.87 3.13c-.08.06-.18.08-.25.1-.32.07-.69 0-.96-.21-.35-.26-.56-.72-.47-1.1l1.25-6.61-5.83-5.86a1.08 1.08 0 01-.24-1.23c.15-.3.4-.5.72-.58.13-.03.26-.03.4-.03l6.77.71 2.37-6.33c.1-.33.41-.57.73-.65.1-.02.2-.04.3-.03.46.02.88.3 1.08.72l2.92 6.69 7.42 1.37c.44.1.81.41.94.82l-.06.05zm-1.1.23l-8.05-1.5-3.16-7.27-2.65 7.11-7.63-.8 6.27 6.25-1.35 7.17 6.37-3.4 6.8 3.32-1.7-7.11 5.13-3.78-.04.01zM770.45 97.7l2.02-.01h-2.02zM608.04 34.25a1.86 1.86 0 001.34-2.39 2.16 2.16 0 00-2.54-1.43l1.2 3.82zm16.66-7.84a1.86 1.86 0 00-1.47 2.31 2.15 2.15 0 002.47 1.55l-1-3.86zm18.9 1.2a1.86 1.86 0 001.68-2.16 2.15 2.15 0 00-2.32-1.75l.63 3.91zm17.97-4.74c-1.12-.02-2 .85-1.95 1.94.05 1.09 1 1.98 2.11 2l-.16-3.94zm18.36 5.24a1.9 1.9 0 002.2-1.68 2.11 2.11 0 00-1.86-2.22l-.34 3.9zm18.86-.31a1.92 1.92 0 00-2.4 1.4 2.08 2.08 0 001.56 2.4l.84-3.8zm19.32 10.45c1.05.43 2.22-.02 2.61-1.02.4-1-.13-2.15-1.19-2.59l-1.42 3.6zm23.26 8.28c-.93-.66-2.19-.5-2.82.37-.63.87-.39 2.1.54 2.76l2.28-3.13zm14.78 19.42c.68.9 1.95 1.13 2.85.52a1.9 1.9 0 00.38-2.73l-3.23 2.21zm14.28 19.75a2.16 2.16 0 00-2.5-1.5 1.86 1.86 0 00-1.42 2.34l3.92-.84zm-1.24 26.45c.06 1.1 1 1.98 2.13 1.98 1.12.01 1.98-.87 1.93-1.95l-4.06-.03zm5.35 28.99a2.14 2.14 0 00-2.1-2c-1.13 0-2 .86-1.95 1.95l4.05.05zM599.21 36.43c2.77-.67 5.72-1.41 8.83-2.18l-1.2-3.82c-3.13.78-6.05 1.51-8.8 2.18l1.17 3.82zm26.49-6.16c5.6-1.08 11.56-2.03 17.9-2.66l-.64-3.91c-6.47.64-12.57 1.6-18.26 2.7l1 3.87zm36.03-3.47c5.83.07 11.9.48 18.2 1.31l.34-3.9a156.84 156.84 0 00-18.7-1.34l.16 3.93zm36.22 4.8c2.91.75 5.87 1.59 8.86 2.54l1.08-3.74c-3.08-.97-6.11-1.84-9.1-2.6l-.84 3.8zm8.86 2.54c4 1.27 7.77 2.64 11.3 4.1l1.42-3.6a144.2 144.2 0 00-11.64-4.24l-1.08 3.74zm32.28 15.52a77.18 77.18 0 0117.06 16.3l3.23-2.22a81.52 81.52 0 00-18-17.21l-2.3 3.13zm27.42 36.88c1.1 3.93 1.7 7.7 1.91 11.17l4.06-.02a57.17 57.17 0 00-2.05-11.99l-3.92.84zm1.91 11.17c.25 4.15.51 9.12.77 14.44l4.06.03c-.26-5.33-.52-10.33-.77-14.5l-4.06.03zm2.07 43.38l.57 14.46 4.06.06-.58-14.47-4.05-.05zM38 223.2l1.83.94-1.83-.95zm-4.16 81.53l-1.82.76 1.82-.76zm138.69-138.48c-1.11.1-2.14-.7-2.3-1.78a1.86 1.86 0 011.72-2.14l.58 3.92zm-21.34-2.04c1.11-.12 2.16.66 2.34 1.74a1.86 1.86 0 01-1.68 2.17l-.66-3.91zm-19.78 6.66a2.15 2.15 0 01-2.43-1.6 1.86 1.86 0 011.53-2.28l.9 3.88zm-21.28.4a2.16 2.16 0 012.55 1.4 1.86 1.86 0 01-1.32 2.4l-1.23-3.8zM92 181.19a2.15 2.15 0 01-2.68-1.13 1.86 1.86 0 011.02-2.54l1.66 3.67zm-20.34 5.1c.94-.53 2.2-.2 2.8.74.61.94.34 2.14-.6 2.68l-2.2-3.41zm-13.91 14.87c-.81.71-2.1.62-2.88-.2a1.92 1.92 0 01.05-2.77l2.83 2.97zm-16.38 12.29c.6-.88 1.86-1.09 2.8-.45.95.63 1.22 1.86.62 2.74l-3.42-2.3zm-5.78 20.03c-.4 1-1.57 1.45-2.62 1-1.05-.43-1.58-1.6-1.18-2.59l3.8 1.6zm-9.74 18.8a1.91 1.91 0 012.35-1.47 2.1 2.1 0 011.65 2.36l-4-.9zm2.5 21.44a1.87 1.87 0 01-1.94 1.95 2.14 2.14 0 01-2.11-2l4.06.05zm-.42 21.44a1.86 1.86 0 011.35-2.39c1.07-.25 2.2.39 2.53 1.44l-3.88.95zm12.43 15.67c.7.88.56 2.1-.31 2.74-.88.64-2.16.43-2.86-.45l3.17-2.3zm8.56 15.72a1.91 1.91 0 01.1-2.78c.8-.7 2.1-.6 2.86.24l-2.96 2.54zm15.13 10.27c.79.81.78 2.06-.02 2.78-.8.72-2.09.64-2.87-.17l2.9-2.61zm9.48 15.32c-.8-.81-.79-2.06 0-2.78.8-.73 2.09-.66 2.88.15l-2.88 2.63zm15.23 10.1c.78.82.76 2.07-.04 2.78-.8.72-2.09.64-2.87-.18l2.9-2.6zm9.02 15.55a1.9 1.9 0 01.2-2.76 2.1 2.1 0 012.87.34l-3.07 2.42zm85.3-212.88c-2.3.55-6 .94-10.56 1.34l-.58-3.92c4.65-.4 8.01-.77 9.96-1.24l1.18 3.82zm-31.24 3.21c-6.32.67-13.23 1.54-20.44 2.75l-.9-3.88c7.31-1.22 14.3-2.1 20.68-2.78l.66 3.91zm-40.49 6.96c-6.48 1.66-13 3.67-19.35 6.1l-1.66-3.66a181.5 181.5 0 0119.78-6.25l1.23 3.8zM73.87 189.7a97.37 97.37 0 00-16.11 11.45l-2.83-2.97a101.11 101.11 0 0116.74-11.9l2.2 3.42zM44.8 215.74a74.5 74.5 0 00-4.97 8.4l-3.66-1.89a78.22 78.22 0 015.2-8.8l3.43 2.3zm-4.97 8.4c-1.6 3.14-3 6.26-4.23 9.34l-3.8-1.59c1.27-3.18 2.72-6.4 4.37-9.64l3.66 1.88zm-9.97 29.03a92.07 92.07 0 00-1.5 20.55l-4.05-.05c-.28-6.72.17-13.9 1.55-21.4l4 .9zm1.96 41.04c1.1 3.54 2.4 6.8 3.85 9.75l-3.65 1.53a71.25 71.25 0 01-4.08-10.33l3.88-.95zm3.85 9.75c.81 1.65 2.4 3.98 4.7 6.87l-3.17 2.29c-2.33-2.94-4.16-5.55-5.18-7.63l3.65-1.53zM51.89 324c3.76 4.05 7.9 8.39 12.17 12.8l-2.9 2.62a833.63 833.63 0 01-12.23-12.88L51.9 324zm24.53 25.5c4.31 4.42 8.52 8.73 12.35 12.74l-2.91 2.59c-3.82-3.99-8-8.28-12.32-12.7l2.88-2.63zm24.44 25.86c2.58 3 4.58 5.6 5.52 7.43l-3.63 1.59c-.67-1.33-2.36-3.57-4.96-6.6l3.07-2.42zM194 768l-.7 1.81.7-1.81zM85.15 610.74a1.86 1.86 0 01-1.76 2.1 2.15 2.15 0 01-2.27-1.83l4.03-.27zm-.68 18.55a1.86 1.86 0 011.55-2.26c1.1-.17 2.18.55 2.42 1.63l-3.97.63zm8.36 17.24a1.86 1.86 0 01-1.45 2.33 2.15 2.15 0 01-2.48-1.54l3.93-.79zm1.16 18.68a1.86 1.86 0 011.37-2.37c1.07-.25 2.2.4 2.52 1.46l-3.9.91zm9.53 16.7a1.85 1.85 0 01-1.28 2.43 2.15 2.15 0 01-2.57-1.38l3.85-1.04zm2.47 18.64a1.86 1.86 0 011.18-2.48 2.15 2.15 0 012.62 1.28l-3.8 1.2zm10.87 15.95c.46 1.02 0 2.15-1.03 2.54a2.15 2.15 0 01-2.68-1.14l3.71-1.4zm4.78 18.34a1.87 1.87 0 01.75-2.64c.97-.49 2.22-.1 2.77.87l-3.52 1.77zm14.09 12.89c.77.82.74 2.07-.07 2.77-.81.71-2.1.62-2.87-.21l2.94-2.56zm12.48 14.01c-1.03-.48-1.5-1.66-1.06-2.63.45-.98 1.64-1.38 2.67-.9l-1.6 3.53zm18.69.79a2.12 2.12 0 011.93 2.15 1.89 1.89 0 01-2.12 1.76l.19-3.91zm18 5.21a2.11 2.11 0 01-1.86-2.21 1.9 1.9 0 012.2-1.69l-.34 3.9zm18.87-.2a2.12 2.12 0 011.94 2.14 1.89 1.89 0 01-2.12 1.77l.18-3.92zm19.87 5.31a2.13 2.13 0 01-2.03-2.08c0-1.08.92-1.91 2.04-1.85l-.01 3.93zm19.92-2.97c1.12.05 2.04.97 2.05 2.05a1.88 1.88 0 01-2.02 1.88l-.03-3.93zm19.87 4.7a2.13 2.13 0 01-2.07-2.04 1.88 1.88 0 012-1.89l.06 3.93zm19.84-3.26c1.12.03 2.05.94 2.08 2.03a1.88 1.88 0 01-2 1.9l-.08-3.93zm19.94 4.52a2.13 2.13 0 01-2.08-2.02 1.88 1.88 0 011.98-1.91l.1 3.94zm19.8-3.4c1.12.04 2.05.94 2.08 2.03a1.88 1.88 0 01-1.97 1.91l-.11-3.93zm20 4.44a2.14 2.14 0 01-2.09-2.02 1.88 1.88 0 011.97-1.92l.12 3.94zm19.74-3.48c1.13.02 2.06.93 2.1 2.01a1.87 1.87 0 01-1.97 1.92l-.13-3.93zm20.01 4.36a2.13 2.13 0 01-2.1-2 1.87 1.87 0 011.97-1.93l.13 3.93zm19.74-3.53c1.12.02 2.06.92 2.1 2a1.87 1.87 0 01-1.97 1.93l-.13-3.93zm20 4.31a2.13 2.13 0 01-2.1-2 1.87 1.87 0 011.95-1.93l.14 3.93zm19.76-3.58c1.12.02 2.06.92 2.1 2a1.88 1.88 0 01-1.95 1.94l-.15-3.94zm20.01 4.27a2.14 2.14 0 01-2.1-2 1.87 1.87 0 011.96-1.93l.14 3.94zm19.71-3.61c1.12.01 2.07.9 2.1 2a1.87 1.87 0 01-1.94 1.93l-.16-3.93zm20.04 4.23a2.14 2.14 0 01-2.11-2 1.87 1.87 0 011.95-1.94l.16 3.94zm19.75-3.66c1.12.02 2.06.91 2.1 2a1.87 1.87 0 01-1.94 1.94l-.16-3.94zm20.04 4.19a2.13 2.13 0 01-2.11-2 1.87 1.87 0 011.94-1.94l.17 3.94zM84.74 602.13c-.22 1.72-.1 4.63.41 8.61l-4.03.27c-.5-4.02-.7-7.35-.4-9.57l4.02.69zm3.7 26.53c1.22 5.5 2.7 11.52 4.39 17.87l-3.93.8c-1.7-6.4-3.2-12.49-4.43-18.04l3.97-.63zm9.44 35.64a565.64 565.64 0 005.64 17.62l-3.85 1.04c-2-5.91-3.9-11.87-5.68-17.75l3.9-.91zm11.91 35.05c2.3 6 4.67 11.78 7.07 17.15l-3.71 1.4a342.03 342.03 0 01-7.16-17.35l3.8-1.2zm15.37 33.72a91.71 91.71 0 004.93 7.74l-3.3 2.13a95.95 95.95 0 01-5.15-8.1l3.52-1.77zm4.93 7.74a68.33 68.33 0 005.64 6.92l-2.94 2.56a72.47 72.47 0 01-6-7.35l3.3-2.13zm19.73 17.4c5.7 2.68 11.41 3.77 17.08 4.32l-.2 3.91c-5.92-.57-12.17-1.73-18.49-4.7l1.61-3.52zm35.42 5.63c3.22.43 6.4 1.12 9.45 2.35l-1.38 3.62a34.37 34.37 0 00-8.4-2.07l.33-3.9zm9.45 2.35c.38.15 1.3.37 2.94.62 1.57.24 3.63.48 6.14.72l-.18 3.92c-2.55-.24-4.7-.5-6.39-.75-1.61-.25-3-.53-3.9-.89l1.4-3.62zm28.96 2.73c5.94.33 12.62.65 19.9.96l.04 3.93c-7.3-.31-14-.63-19.95-.96l.01-3.93zm39.7 1.73c6.37.23 13.03.45 19.92.67l.09 3.93c-6.9-.21-13.57-.44-19.94-.67l-.06-3.93zm39.76 1.26l19.9.54.1 3.93-19.9-.53-.1-3.94zm39.78 1.03l19.86.46.13 3.93c-6.65-.14-13.3-.3-19.87-.45l-.12-3.94zm39.74.89l19.87.4.13 3.93-19.87-.4-.13-3.93zm39.72.77l19.91.36.15 3.94-19.92-.36-.14-3.93zm39.78.7l19.85.32.15 3.93-19.86-.31-.14-3.94zm39.73.62c7.29.1 13.97.2 19.9.27l.17 3.94-19.91-.28-.16-3.94zm39.78.52c5.31.06 8.69.1 9.75.1l.22 3.93c-1.1 0-4.5-.03-9.8-.1l-.17-3.93zm83.13-125.22v1.97-1.97zm38.38-9.21l1.54 1.35-1.54-1.35zm-78.09 11.38c1.12-.01 2.09.87 2.15 1.95a1.87 1.87 0 01-1.9 1.98l-.25-3.93zm26.62-.02a2.15 2.15 0 01-2.29-1.8 1.86 1.86 0 011.74-2.13l.54 3.92zm23.55-3.74c1.12.02 2.06.91 2.1 2a1.87 1.87 0 01-1.96 1.93l-.14-3.93zm21.57.82c-.94.54-2.2.22-2.81-.72a1.88 1.88 0 01.6-2.7l2.2 3.42zm16.95-12.95c1.12 0 2.08.89 2.13 1.98a1.87 1.87 0 01-1.93 1.96l-.2-3.94zm22.95 5.66a2.13 2.13 0 01-2.02-2.08c0-1.08.92-1.91 2.05-1.85l-.03 3.93zm-120.88 4.63c1.56 2.35 3 3.71 4.4 4.5a9.33 9.33 0 004.84 1.1l.25 3.93a13.6 13.6 0 01-6.98-1.65c-2.19-1.23-4.1-3.17-5.9-5.87l3.39-2zm35.31 1.65c4.05-.32 8.56-.43 13.63-.19l.02 3.94c-4.89-.24-9.23-.13-13.1.17l-.55-3.92zm13.63-.19c4 .2 7.46.33 10.47.38l.14 3.93c-3.07-.05-6.57-.18-10.6-.37v-3.94zm29.83-2.21c2.36-1.36 4.17-3.32 7.01-6.4l3.1 2.72c-2.74 2.95-4.94 5.39-7.9 7.1l-2.21-3.42zm7.01-6.4c1.3-1.38 3.2-2.14 5.2-2.57 2.05-.43 4.43-.58 6.95-.57l.2 3.94c-2.38-.01-4.44.13-6.07.48-1.66.36-2.66.88-3.19 1.44l-3.09-2.71zm35.13-1.4c2.6.15 4.83.16 6.54-.04 1.82-.21 2.58-.62 2.81-.89l3.15 2.64c-1.23 1.4-3.3 1.93-5.26 2.16-2.08.24-4.6.2-7.27.05l.02-3.92z"/></g></svg>